<?xml version="1.0" standalone="no"?>
<!DOCTYPE svg PUBLIC "-//W3C//DTD SVG 20010904//EN"
 "http://www.w3.org/TR/2001/REC-SVG-20010904/DTD/svg10.dtd">
<svg version="1.0" xmlns="http://www.w3.org/2000/svg"
 width="1152.000000pt" height="896.000000pt" viewBox="0 0 1152.000000 896.000000"
 preserveAspectRatio="xMidYMid meet">

<g transform="translate(0.000000,896.000000) scale(0.100000,-0.100000)"
fill="#000000" stroke="none">
<path d="M6380 7816 c-19 -6 -44 -16 -55 -22 -11 -6 -38 -17 -60 -24 -22 -7
-67 -27 -100 -45 -74 -41 -142 -129 -192 -249 -19 -44 -42 -99 -51 -121 -9
-22 -43 -67 -76 -100 -32 -33 -75 -91 -95 -129 -32 -61 -42 -71 -87 -91 -28
-13 -62 -38 -76 -58 -23 -29 -35 -35 -80 -41 -29 -3 -75 -11 -103 -16 -27 -6
-84 -16 -126 -23 -43 -6 -79 -16 -80 -21 -4 -10 123 -11 176 -2 17 2 30 5 30
6 0 0 39 2 87 4 65 3 90 0 99 -10 6 -8 18 -14 25 -14 7 0 20 -13 28 -29 24
-46 56 -45 160 6 124 62 184 81 293 94 190 23 376 -33 535 -159 175 -140 269
-338 269 -567 0 -95 0 -95 25 -95 38 0 84 -28 84 -50 0 -11 7 -20 16 -20 26 0
74 -61 68 -86 -4 -17 0 -24 18 -29 12 -4 34 -17 48 -30 14 -13 36 -26 50 -30
34 -10 90 -53 90 -69 0 -8 7 -16 15 -20 10 -3 15 -19 15 -42 0 -21 3 -34 6
-31 4 4 21 -4 38 -16 17 -12 31 -20 31 -18 0 1 26 -9 59 -23 32 -14 67 -26 77
-26 12 0 23 -10 29 -25 6 -15 15 -23 24 -19 7 3 32 0 55 -6 39 -10 41 -13 41
-50 0 -21 5 -42 11 -45 5 -4 9 -19 8 -33 -4 -57 0 -68 34 -77 25 -8 32 -15 32
-35 0 -14 9 -39 19 -55 11 -16 29 -70 41 -119 18 -73 20 -92 10 -103 -10 -10
-14 -9 -18 7 -3 12 -14 20 -26 20 -12 0 -29 4 -39 9 -57 31 -91 40 -126 34
-49 -8 -53 -19 -11 -33 25 -8 35 -18 35 -32 0 -15 -4 -18 -17 -13 -10 3 -30 9
-45 12 -16 3 -28 12 -28 19 0 8 -11 19 -24 23 -13 5 -26 17 -30 26 -3 9 -12
15 -19 12 -6 -2 -25 0 -41 4 -34 10 -56 -3 -56 -33 0 -30 -28 -33 -53 -6 -18
20 -30 24 -56 20 -38 -5 -36 -26 2 -30 15 -2 27 -7 27 -12 0 -4 9 -6 20 -3 32
9 23 -12 -14 -32 -29 -16 -39 -17 -61 -7 -14 7 -24 8 -21 3 4 -5 -14 -33 -39
-62 -39 -46 -44 -55 -30 -65 24 -18 18 -27 -14 -21 -15 3 -33 1 -39 -5 -7 -7
-20 -6 -43 6 -18 9 -44 16 -59 16 -15 0 -51 10 -79 21 -28 12 -54 19 -58 15
-9 -9 15 -58 26 -52 5 3 8 -2 7 -11 -1 -12 7 -17 23 -18 13 0 29 -8 35 -17 27
-44 -90 -58 -143 -17 -26 21 -56 25 -66 9 -3 -5 1 -10 9 -10 8 0 18 -5 22 -12
4 -7 3 -8 -4 -4 -7 4 -12 1 -12 -8 0 -22 -48 -21 -101 4 -41 18 -46 18 -68 3
-13 -8 -36 -19 -50 -23 -14 -4 -25 -12 -23 -19 3 -14 -15 -15 -23 -1 -3 6 -11
10 -17 10 -7 0 -6 -5 2 -15 10 -12 6 -17 -22 -28 -35 -15 -62 -11 -34 5 24 13
20 28 -8 28 -13 0 -30 -10 -38 -22 -13 -20 -18 -21 -31 -9 -10 8 -45 14 -87
15 -53 1 -71 5 -75 16 -3 9 -24 26 -48 39 -41 22 -46 23 -74 9 -37 -19 -48
-13 -57 29 -6 27 -4 34 16 44 31 17 44 31 52 57 9 28 23 28 31 1 6 -19 8 -19
25 -4 10 9 23 14 28 11 5 -3 8 16 6 46 -1 28 -7 54 -14 58 -16 10 2 75 20 75
8 0 20 -11 27 -25 8 -16 24 -27 45 -32 18 -3 34 -5 35 -4 2 1 -8 36 -21 77
-39 121 -41 136 -16 144 l22 7 -25 26 c-19 21 -24 37 -24 75 0 27 -4 52 -10
55 -14 9 -43 79 -43 103 0 27 36 38 92 29 25 -3 52 -3 60 1 7 4 41 10 75 14
69 8 171 45 189 69 6 9 16 16 22 16 13 0 54 41 48 48 -3 2 -24 -7 -48 -21 -57
-33 -136 -54 -228 -63 -126 -11 -233 19 -319 90 -61 49 -121 93 -183 134 -31
20 -85 60 -118 87 -34 28 -79 64 -100 81 -21 17 -63 43 -94 59 -67 34 -72 41
-85 126 -20 124 33 339 109 443 39 53 38 64 -4 32 -19 -14 -42 -26 -50 -26 -9
0 -22 -13 -31 -30 -9 -18 -26 -32 -43 -36 -62 -14 -64 -15 -59 -40 2 -13 0
-24 -5 -24 -5 0 -13 -12 -18 -26 -6 -16 -25 -32 -50 -42 -29 -12 -38 -21 -34
-32 4 -8 23 -60 42 -115 31 -88 35 -112 36 -200 1 -96 -21 -208 -47 -242 -5
-7 -45 -30 -90 -52 -45 -22 -132 -78 -194 -124 -152 -115 -261 -161 -383 -161
-95 0 -126 10 -263 91 -71 41 -197 152 -197 173 0 5 -6 15 -13 22 -21 21 -74
110 -92 153 -38 89 -51 304 -21 350 7 11 16 31 19 45 12 49 70 122 151 189
116 98 195 135 361 172 119 26 150 28 213 12 62 -15 94 -17 74 -4 -11 6 -7 13
16 30 17 11 35 21 41 21 6 0 13 11 17 25 7 26 41 42 70 31 9 -3 20 -3 25 0 10
6 -68 63 -85 64 -6 0 -36 -20 -67 -45 -32 -25 -62 -45 -68 -45 -28 0 -91 -34
-91 -49 0 -11 -3 -12 -8 -4 -6 9 -29 11 -82 7 -146 -12 -149 -11 -181 27 -15
18 -35 52 -45 74 -58 140 -85 184 -161 259 -43 43 -94 86 -113 96 -121 62
-545 147 -685 138 -62 -4 -70 -26 -28 -70 37 -39 95 -67 163 -78 62 -11 94
-39 84 -74 -10 -36 -39 -70 -75 -88 -49 -24 -166 -57 -224 -64 -27 -3 -89 -21
-136 -40 -131 -51 -153 -47 -278 64 -51 44 -79 62 -99 62 -35 0 -52 -16 -52
-51 0 -35 22 -60 99 -111 49 -33 73 -58 103 -107 22 -37 40 -80 41 -99 2 -34
0 -36 -73 -74 -68 -36 -80 -39 -131 -34 -48 5 -61 2 -84 -16 -15 -12 -34 -36
-41 -55 -8 -18 -31 -44 -52 -57 -20 -13 -42 -30 -49 -37 -24 -30 -44 -118 -53
-234 -11 -140 -30 -203 -92 -296 -27 -40 -53 -66 -77 -77 -158 -71 -122 -203
60 -219 65 -6 66 -8 79 -95 5 -32 20 -87 35 -124 29 -72 33 -127 15 -194 -13
-50 -9 -76 21 -115 32 -39 94 -65 161 -65 49 0 59 -3 69 -22 7 -13 21 -32 31
-43 11 -11 30 -36 42 -55 26 -42 107 -97 155 -106 19 -4 56 -2 83 5 28 6 54 9
59 5 23 -14 6 -200 -28 -291 -18 -50 -14 -253 7 -338 18 -71 60 -184 84 -225
12 -19 28 -47 35 -62 8 -15 35 -49 60 -75 25 -27 66 -75 91 -106 25 -32 57
-72 72 -90 14 -18 67 -54 116 -80 60 -32 108 -66 144 -103 77 -80 77 -77 27
-148 -167 -239 -176 -255 -298 -521 -44 -96 -64 -152 -107 -300 -9 -33 -27
-91 -40 -130 -22 -68 -53 -193 -89 -360 -10 -44 -28 -111 -41 -150 -12 -38
-26 -88 -30 -110 -4 -22 -13 -54 -21 -72 -7 -18 -13 -50 -13 -71 l0 -39 78 -7
c90 -8 3638 2 3666 11 15 4 16 7 5 14 -11 6 -11 11 -2 20 16 16 45 3 41 -18
-3 -17 15 -19 227 -26 127 -4 327 -5 445 -2 118 3 313 6 433 7 122 1 220 5
224 11 14 22 -42 93 -81 103 -30 7 -42 -11 -21 -32 25 -25 11 -28 -45 -9 -51
17 -103 66 -107 102 -1 10 -6 35 -11 56 -9 33 -7 39 10 48 16 9 26 7 47 -10
45 -36 168 -77 185 -61 18 18 -111 117 -139 106 -9 -3 -15 0 -15 10 0 8 -11
19 -25 24 -36 14 -31 22 10 14 31 -5 35 -4 35 15 0 13 -12 29 -32 41 -17 10
-60 45 -95 76 -52 48 -63 63 -63 89 0 42 8 48 38 29 13 -8 26 -14 28 -12 2 3
-10 30 -26 61 -16 32 -31 71 -32 88 -2 21 -12 36 -35 52 -39 26 -44 50 -9 41
13 -3 27 -1 30 5 4 6 3 11 -2 11 -7 0 -32 42 -32 54 0 2 9 6 20 9 14 3 24 -1
31 -15 6 -12 17 -17 26 -14 9 4 22 1 29 -5 11 -9 15 -7 21 6 8 23 -23 46 -53
39 -16 -4 -25 0 -34 15 -11 22 -63 30 -75 11 -4 -6 -15 -4 -30 6 -32 21 -25
31 25 39 60 10 50 33 -19 44 -40 7 -53 30 -22 38 22 6 27 18 11 28 -13 8 -13
45 1 45 6 0 19 -5 29 -10 13 -7 21 -7 25 0 4 6 10 8 14 6 4 -3 13 -1 20 4 19
11 6 40 -19 40 -11 0 -20 7 -20 15 0 18 -31 35 -64 35 -33 0 -96 30 -96 46 0
8 18 14 48 16 27 2 45 7 42 13 -2 6 -10 9 -17 7 -14 -3 -130 55 -139 69 -3 5
-13 9 -22 9 -9 0 -30 7 -46 15 -15 8 -36 15 -46 15 -10 0 -23 7 -30 15 -10 12
-10 15 3 15 8 0 21 9 28 19 9 13 29 21 53 23 52 5 57 23 12 42 -20 8 -36 17
-36 19 0 8 96 6 118 -3 53 -23 77 -36 92 -48 76 -63 91 -74 96 -69 12 12 -28
79 -82 136 -63 67 -183 161 -206 161 -7 0 -22 14 -32 30 -22 38 -48 65 -107
113 -55 44 -81 111 -74 194 5 67 77 187 158 263 162 153 183 177 222 253 22
43 64 105 93 138 63 73 77 99 98 181 8 35 19 79 24 98 17 62 11 117 -16 175
-24 51 -26 64 -22 144 3 49 2 95 -3 102 -9 15 -11 13 -26 -15 -10 -18 -11 -18
-18 4 -6 18 -3 27 12 37 20 14 20 14 -3 111 -12 53 -41 139 -63 190 -23 53
-43 119 -47 152 -6 50 -4 60 15 79 17 17 33 21 90 21 68 0 101 12 61 23 -32 8
-23 26 18 32 66 12 74 16 66 33 -4 10 -7 29 -6 44 1 20 -10 35 -43 63 -42 34
-45 40 -45 83 0 62 42 177 76 213 36 38 60 36 113 -6 50 -40 87 -53 103 -37
16 16 -26 126 -81 207 -41 60 -59 76 -141 126 -116 70 -129 86 -104 128 21 35
27 38 110 56 111 24 162 62 208 152 19 38 22 133 4 133 -7 0 -27 -15 -46 -32
-31 -31 -37 -33 -102 -32 -94 2 -144 27 -148 73 -2 23 3 40 18 56 25 27 39 95
20 95 -8 0 -52 -7 -99 -16 -122 -23 -142 -15 -259 102 -84 84 -93 97 -90 126
3 29 10 36 65 63 76 37 91 51 137 125 30 48 35 63 26 79 -25 47 -77 31 -155
-48 -35 -37 -44 -41 -88 -41 -42 0 -52 4 -78 32 -16 18 -36 52 -44 75 -8 24
-22 63 -31 88 -11 33 -31 58 -71 90 -30 25 -65 47 -76 49 -12 3 -34 7 -48 10
-15 3 -62 -7 -115 -25 -118 -41 -160 -37 -239 20 -57 40 -190 91 -239 91 -13
0 -36 4 -52 9 -49 16 -137 19 -174 7z m1452 -2845 c12 -43 4 -61 -25 -61 -29
0 -43 16 -45 48 0 13 -9 30 -19 37 -15 11 -11 13 32 11 47 -1 49 -2 57 -35z
m-3662 1 c0 -11 -22 -32 -32 -32 -5 0 -4 9 2 20 11 20 30 28 30 12z m260 -52
c0 -5 -5 -10 -11 -10 -5 0 -7 5 -4 10 3 6 8 10 11 10 2 0 4 -4 4 -10z m75 -10
c3 -5 2 -10 -4 -10 -5 0 -13 5 -16 10 -3 6 -2 10 4 10 5 0 13 -4 16 -10z m-82
-35 c4 -8 2 -17 -4 -20 -5 -4 -8 -13 -7 -20 2 -8 -1 -15 -6 -17 -10 -3 -19 40
-12 59 7 17 23 16 29 -2z m57 -16 c0 -5 -7 -9 -15 -9 -8 0 -15 7 -15 15 0 9 6
12 15 9 8 -4 15 -10 15 -15z m3436 -21 c3 -11 3 -22 0 -26 -10 -9 -49 35 -42
47 9 15 34 3 42 -21z m30 -52 c10 -8 16 -17 12 -21 -7 -7 -48 16 -48 27 0 12
14 9 36 -6z m-1972 -12 c4 -10 12 -14 22 -10 9 4 32 -3 50 -13 27 -16 34 -17
34 -6 0 7 5 17 12 21 8 5 9 2 5 -10 -6 -16 -2 -17 43 -11 34 5 50 3 50 -4 0
-6 -5 -11 -11 -11 -6 0 -24 -10 -41 -21 -25 -18 -38 -20 -80 -15 -55 8 -118
49 -118 79 0 21 26 23 34 1z m1855 -9 c15 -16 30 -23 41 -20 13 4 19 -1 24
-20 4 -14 11 -25 16 -25 6 0 10 -7 10 -15 0 -10 -10 -15 -29 -15 -41 0 -47
-17 -17 -45 14 -13 26 -31 26 -39 0 -9 10 -34 22 -57 17 -33 19 -43 7 -49 -17
-11 -29 -3 -29 21 0 10 -2 19 -4 19 -2 0 -12 3 -22 7 -14 5 -16 2 -11 -18 6
-26 -8 -52 -35 -62 -10 -3 -18 -13 -18 -20 0 -22 -27 -40 -67 -46 -29 -5 -38
-12 -46 -36 -5 -17 -12 -32 -14 -35 -2 -2 -47 -5 -99 -6 -75 -2 -96 1 -102 13
-8 13 -16 13 -68 -2 -77 -22 -88 -29 -92 -51 -2 -10 -11 -25 -20 -31 -23 -18
-10 -25 48 -27 55 -1 60 3 30 22 -25 15 -26 34 -2 25 35 -12 49 -32 44 -63 -5
-34 -26 -38 -96 -18 -48 13 -77 35 -70 52 5 14 -22 29 -83 45 -46 13 -92 6
-108 -16 -7 -10 -39 -16 -95 -19 -47 -3 -88 -10 -91 -16 -4 -6 -15 -8 -24 -4
-10 3 -28 0 -40 -8 -26 -17 -75 -23 -93 -12 -8 5 -21 1 -33 -10 -10 -9 -22
-14 -25 -11 -4 3 -16 0 -27 -8 -18 -12 -24 -12 -48 2 -24 15 -30 15 -51 2 -13
-9 -45 -23 -72 -33 -44 -17 -50 -17 -58 -3 -5 9 -14 14 -21 11 -7 -2 -26 7
-42 20 l-29 25 -26 -24 c-22 -21 -33 -24 -80 -20 -30 2 -65 7 -77 10 -13 4
-23 3 -23 -2 0 -5 -8 -9 -17 -9 -10 0 -51 -4 -90 -8 -62 -6 -73 -5 -73 8 0 20
-16 29 -41 21 -15 -5 -19 -13 -15 -29 5 -19 2 -22 -23 -20 -29 2 -71 23 -71
36 0 5 -4 8 -10 8 -5 0 -10 -7 -10 -15 0 -25 -39 -17 -52 11 -9 19 -17 24 -32
20 -12 -3 -29 -6 -40 -6 -13 0 -17 -5 -13 -20 6 -22 -11 -28 -19 -6 -3 8 -13
12 -24 9 -10 -3 -21 0 -24 6 -4 6 -15 11 -24 11 -14 0 -13 -2 3 -13 17 -13 17
-14 -1 -19 -29 -8 -39 -5 -36 10 3 14 -28 13 -39 -1 -10 -14 -84 8 -87 26 -3
17 15 22 61 19 9 -1 17 4 17 12 0 14 63 17 76 3 15 -15 24 -6 18 18 -8 33 18
34 51 1 24 -24 45 -19 45 11 0 7 9 13 21 13 11 0 18 4 14 9 -3 5 0 13 6 17 6
3 14 1 18 -5 5 -8 22 -4 56 14 34 17 60 23 85 20 19 -2 54 -7 76 -10 36 -4 42
-2 47 15 3 11 13 20 24 21 10 0 29 3 43 5 14 2 34 5 45 7 32 5 79 19 90 28 14
11 143 40 185 41 19 1 53 7 75 15 21 7 52 11 67 8 19 -5 36 0 56 15 16 12 45
24 63 26 19 2 54 9 79 15 25 5 57 13 72 16 15 3 33 11 39 19 6 8 28 14 48 14
20 0 49 7 65 15 18 10 41 13 62 9 24 -4 38 -1 49 10 9 8 35 21 58 27 23 7 49
18 58 26 8 7 22 13 29 13 16 0 78 19 102 31 10 5 28 9 41 9 13 0 29 6 35 12
16 16 315 21 354 6 14 -5 28 -18 31 -29 7 -25 27 -24 27 1 0 12 7 31 15 44 8
12 16 34 17 49 3 33 7 33 37 2z m-1253 -63 c-3 -5 -19 -9 -36 -10 -17 0 -28 4
-25 9 4 5 20 9 36 9 17 0 28 -4 25 -8z m-614 -50 c18 -16 41 -31 51 -35 30
-11 20 -29 -13 -22 -29 6 -100 61 -100 77 0 17 31 7 62 -20z m-187 8 c3 -5 -3
-10 -15 -10 -12 0 -18 5 -15 10 3 6 10 10 15 10 5 0 12 -4 15 -10z m1275 -487
c0 -7 -4 -13 -10 -13 -5 0 -10 -5 -10 -11 0 -8 4 -8 13 -1 7 6 23 9 34 6 18
-5 21 -2 16 15 -8 31 30 27 62 -6 26 -29 35 -54 12 -35 -9 8 -34 8 -79 2 -37
-6 -74 -7 -82 -4 -9 3 -16 1 -16 -5 0 -13 -66 -15 -74 -2 -3 5 -21 9 -38 9
-18 0 -51 8 -73 18 l-40 18 40 7 c39 7 101 -3 138 -23 23 -12 37 -1 17 13 -22
13 -1 24 49 24 27 1 41 -3 41 -12z m-345 -43 c3 -6 26 -15 50 -21 44 -11 69
-38 37 -40 -32 -2 -56 3 -75 16 -11 8 -25 11 -32 9 -7 -3 -16 -1 -20 5 -3 6 1
11 10 11 11 0 15 5 11 15 -6 17 9 21 19 5z m-87 -14 c37 -12 17 -22 -45 -21
-63 0 -83 17 -31 26 38 6 45 6 76 -5z m262 -56 c12 -8 9 -10 -13 -10 -16 0
-26 4 -22 10 8 12 16 12 35 0z m124 -80 c-10 -4 -23 -5 -28 -2 -13 7 16 21 32
14 13 -4 12 -7 -4 -12z m483 -684 c-9 -22 5 -28 23 -11 16 15 18 14 24 -11 6
-23 11 -26 36 -20 18 3 30 1 30 -5 0 -5 15 -16 34 -24 19 -8 37 -19 41 -24 8
-14 -33 -34 -61 -28 -13 2 -29 -2 -35 -9 -7 -8 -30 -14 -55 -14 -34 0 -51 6
-76 30 -29 26 -31 29 -12 30 23 0 54 52 35 58 -17 6 -13 42 5 42 10 0 14 -6
11 -14z m131 -424 l15 -23 -36 17 c-41 19 -49 37 -16 32 12 -2 29 -13 37 -26z
m53 -52 c6 0 8 -4 5 -9 -6 -9 -56 -3 -56 7 0 3 8 14 18 25 17 19 17 19 20 -2
2 -11 8 -21 13 -21z m132 -67 c20 -3 37 -10 37 -15 0 -6 -10 -8 -22 -4 -13 3
-40 9 -60 12 -21 4 -38 11 -38 16 0 6 10 7 23 4 12 -4 39 -10 60 -13z m-18
-63 c3 -5 2 -10 -4 -10 -5 0 -13 5 -16 10 -3 6 -2 10 4 10 5 0 13 -4 16 -10z
m-1011 -765 c2 -7 2 -16 -1 -19 -9 -8 -67 5 -82 20 -12 11 -7 13 32 12 27 0
48 -6 51 -13z m1180 -253 c5 -18 6 -35 2 -39 -10 -10 -34 18 -42 50 -6 25 -4
28 12 25 11 -2 22 -17 28 -36z m-1157 -31 c1 -30 0 -31 -13 -14 -17 23 -18 56
-1 51 6 -3 13 -19 14 -37z m1468 -52 c4 -6 13 -8 21 -5 8 3 14 1 14 -5 0 -14
-53 -7 -58 9 -5 15 14 16 23 1z m-1430 -9 c3 -5 1 -10 -4 -10 -6 0 -11 5 -11
10 0 6 2 10 4 10 3 0 8 -4 11 -10z m1040 0 c3 -5 1 -10 -4 -10 -6 0 -11 5 -11
10 0 6 2 10 4 10 3 0 8 -4 11 -10z"/>
<path d="M7805 4477 c-4 -10 -5 -21 -1 -24 10 -10 18 4 13 24 -4 17 -4 17 -12
0z"/>
<path d="M7264 4284 c3 -9 6 -18 6 -20 0 -2 6 -4 14 -4 21 0 31 21 15 31 -23
14 -42 11 -35 -7z"/>
<path d="M6480 4195 c-24 -14 -24 -14 -3 -15 12 0 25 5 28 10 5 8 12 7 23 -2
13 -11 14 -11 10 2 -6 20 -28 22 -58 5z"/>
<path d="M6391 4176 c2 -2 14 -9 27 -15 18 -10 22 -9 22 4 0 10 -9 15 -27 15
-14 0 -24 -2 -22 -4z"/>
<path d="M5094 6869 c-3 -5 6 -9 20 -9 31 0 34 6 6 13 -11 3 -23 1 -26 -4z"/>
<path d="M5498 6835 c-4 -16 -1 -25 8 -25 17 0 25 15 18 34 -9 24 -21 19 -26
-9z"/>
<path d="M5655 6759 c-4 -6 -5 -12 -2 -15 2 -3 7 2 10 11 7 17 1 20 -8 4z"/>
<path d="M5963 6724 c-23 -9 -62 -33 -86 -55 -127 -111 -131 -302 -9 -380 94
-59 205 -58 310 4 223 133 141 450 -115 446 -32 0 -77 -7 -100 -15z"/>
<path d="M5410 6690 c0 -5 5 -10 10 -10 6 0 10 5 10 10 0 6 -4 10 -10 10 -5 0
-10 -4 -10 -10z"/>
<path d="M5294 6649 c-8 -13 13 -29 39 -29 26 0 17 32 -10 36 -12 2 -25 -1
-29 -7z"/>
<path d="M4690 6533 c-129 -68 -176 -218 -105 -339 70 -119 236 -158 366 -88
93 51 145 159 120 251 -31 116 -129 193 -255 201 -64 3 -77 1 -126 -25z"/>
<path d="M6730 5789 c0 -5 5 -7 10 -4 6 3 10 8 10 11 0 2 -4 4 -10 4 -5 0 -10
-5 -10 -11z"/>
<path d="M6680 5749 c0 -5 5 -7 10 -4 6 3 10 8 10 11 0 2 -4 4 -10 4 -5 0 -10
-5 -10 -11z"/>
<path d="M6298 5548 c9 -9 15 -9 24 0 9 9 7 12 -12 12 -19 0 -21 -3 -12 -12z"/>
<path d="M6281 5506 c-8 -9 -11 -19 -7 -23 9 -9 29 13 24 27 -2 8 -8 7 -17 -4z"/>
<path d="M7127 5015 c6 -18 34 -16 41 3 2 7 -6 12 -22 12 -19 0 -24 -4 -19
-15z"/>
<path d="M6680 4935 c0 -12 34 -44 42 -39 12 8 -10 44 -27 44 -8 0 -15 -2 -15
-5z"/>
<path d="M6815 4920 c3 -5 8 -10 11 -10 2 0 4 5 4 10 0 6 -5 10 -11 10 -5 0
-7 -4 -4 -10z"/>
<path d="M6110 4899 c0 -5 5 -7 10 -4 6 3 10 8 10 11 0 2 -4 4 -10 4 -5 0 -10
-5 -10 -11z"/>
<path d="M6260 4865 c0 -17 2 -18 24 -9 18 7 12 24 -10 24 -8 0 -14 -7 -14
-15z"/>
<path d="M6496 4856 c7 -19 38 -22 32 -3 -3 6 -12 13 -21 15 -12 2 -15 -1 -11
-12z"/>
<path d="M7695 3060 c3 -5 11 -10 16 -10 6 0 7 5 4 10 -3 6 -11 10 -16 10 -6
0 -7 -4 -4 -10z"/>
<path d="M7934 2959 c3 -25 34 -83 59 -109 7 -8 17 -23 20 -32 4 -10 11 -18
17 -18 7 0 8 6 2 18 -5 9 -21 42 -36 74 -15 31 -36 64 -46 73 -18 16 -19 16
-16 -6z"/>
<path d="M7860 2930 c0 -5 5 -10 12 -10 6 0 20 -7 30 -17 21 -18 34 -12 24 13
-3 9 -12 14 -21 10 -8 -3 -15 -1 -15 4 0 6 -7 10 -15 10 -8 0 -15 -4 -15 -10z"/>
<path d="M8020 2690 c0 -5 5 -10 10 -10 6 0 10 5 10 10 0 6 -4 10 -10 10 -5 0
-10 -4 -10 -10z"/>
<path d="M8045 2680 c-8 -13 3 -30 21 -30 18 0 18 14 0 29 -10 8 -16 9 -21 1z"/>
<path d="M8130 2642 c0 -12 6 -31 12 -42 10 -16 10 -24 0 -41 -12 -18 -11 -24
7 -43 12 -12 21 -34 21 -49 0 -15 4 -27 8 -27 5 0 16 -18 25 -41 20 -50 40
-44 32 9 -18 119 -29 150 -66 202 -31 43 -39 50 -39 32z"/>
<path d="M8300 2166 c-10 -28 0 -69 21 -82 9 -5 7 -10 -5 -20 -22 -16 -11 -37
15 -29 14 5 21 0 28 -18 10 -26 31 -45 31 -28 0 22 -31 126 -40 135 -5 5 -10
18 -10 27 0 9 -7 22 -15 29 -12 10 -16 8 -25 -14z"/>
<path d="M8090 2110 c0 -18 27 -65 46 -81 9 -8 34 -14 56 -15 30 0 38 3 38 17
0 13 -12 22 -38 29 -21 5 -49 21 -62 35 -25 26 -40 32 -40 15z"/>
<path d="M8209 1920 c25 -22 51 -26 51 -10 0 11 -42 30 -63 30 -7 -1 -1 -10
12 -20z"/>
<path d="M8411 1791 c-36 -10 -36 -26 -1 -41 30 -12 39 -33 20 -45 -15 -9 -2
-25 20 -25 10 0 22 -9 25 -20 3 -11 11 -20 17 -20 12 0 5 57 -14 117 -13 39
-26 46 -67 34z"/>
<path d="M8235 1710 c4 -6 11 -8 16 -5 14 9 11 15 -7 15 -8 0 -12 -5 -9 -10z"/>
<path d="M8152 1688 c5 -15 28 -23 28 -10 0 5 -7 13 -16 16 -10 4 -14 1 -12
-6z"/>
</g>
</svg>
